<?xml version="1.0" encoding="UTF-8" standalone="no"?>
<!-- Created with Inkscape (http://www.inkscape.org/) -->

<svg
   xmlns:dc="http://purl.org/dc/elements/1.1/"
   xmlns:cc="http://creativecommons.org/ns#"
   xmlns:rdf="http://www.w3.org/1999/02/22-rdf-syntax-ns#"
   xmlns:svg="http://www.w3.org/2000/svg"
   xmlns="http://www.w3.org/2000/svg"
   xmlns:sodipodi="http://sodipodi.sourceforge.net/DTD/sodipodi-0.dtd"
   xmlns:inkscape="http://www.inkscape.org/namespaces/inkscape"
   width="865"
   height="210"
   viewBox="0 0 865 210"
   id="svg2"
   version="1.1"
   inkscape:version="0.91 r13725"
   sodipodi:docname="logo.svg">
  <defs
     id="defs4" />
  <sodipodi:namedview
     id="base"
     pagecolor="#ffffff"
     bordercolor="#666666"
     borderopacity="1.0"
     inkscape:pageopacity="0.0"
     inkscape:pageshadow="2"
     inkscape:zoom="1"
     inkscape:cx="422.20861"
     inkscape:cy="44.790917"
     inkscape:document-units="px"
     inkscape:current-layer="layer1"
     showgrid="false"
     units="px"
     inkscape:window-width="1366"
     inkscape:window-height="705"
     inkscape:window-x="-8"
     inkscape:window-y="-8"
     inkscape:window-maximized="1" />
  <metadata
     id="metadata7">
    <rdf:RDF>
      <cc:Work
         rdf:about="">
        <dc:format>image/svg+xml</dc:format>
        <dc:type
           rdf:resource="http://purl.org/dc/dcmitype/StillImage" />
        <dc:title></dc:title>
      </cc:Work>
    </rdf:RDF>
  </metadata>
  <g
     inkscape:label="Layer 1"
     inkscape:groupmode="layer"
     id="layer1"
     transform="translate(0,-842.36216)">
    <rect
       style="fill:none;fill-rule:evenodd;stroke:none;stroke-width:0.99132669px;stroke-linecap:butt;stroke-linejoin:miter;stroke-opacity:1"
       id="rect3336"
       width="865.52039"
       height="210"
       x="-0.0015211103"
       y="842.32581"
       inkscape:export-xdpi="90"
       inkscape:export-ydpi="90" />
    <flowRoot
       xml:space="preserve"
       id="flowRoot3340"
       style="font-style:normal;font-weight:normal;font-size:40px;line-height:125%;font-family:sans-serif;letter-spacing:0px;word-spacing:0px;fill:#000000;fill-opacity:1;stroke:none;stroke-width:1px;stroke-linecap:butt;stroke-linejoin:miter;stroke-opacity:1"
       transform="translate(0,852.36216)"><flowRegion
         id="flowRegion3342"><rect
           id="rect3344"
           width="76.5"
           height="45.5"
           x="-83.5"
           y="67" /></flowRegion><flowPara
         id="flowPara3346">Symbol	Symbol Name	Meaning / definition≠sd</flowPara><flowPara
         id="flowPara3348" /></flowRoot>    <flowRoot
       xml:space="preserve"
       id="flowRoot3350"
       style="font-style:normal;font-weight:normal;font-size:40px;line-height:125%;font-family:sans-serif;letter-spacing:0px;word-spacing:0px;fill:#000000;fill-opacity:1;stroke:none;stroke-width:1px;stroke-linecap:butt;stroke-linejoin:miter;stroke-opacity:1"
       transform="translate(0,852.36216)"><flowRegion
         id="flowRegion3352"><rect
           id="rect3354"
           width="133.5"
           height="114"
           x="-153.5"
           y="38.5" /></flowRegion><flowPara
         id="flowPara3356">aSymbol	Symbol Name	Meaning / definition≠</flowPara><flowPara
         id="flowPara3358" /></flowRoot>    <path
       style="fill:#ffffff;stroke:none"
       d="m 117.86762,844.96927 -18.203125,54 -91.4160161,0 0,23.5 83.4941411,0 -10.28125,30.5 -73.2128911,0 0,23.5 65.2910161,0 -18.539063,55.00003 24.798828,0 18.539063,-55.00003 93.410157,0 0,-23.5 -85.48828,0 10.28125,-30.5 75.20703,0 0,-23.5 -67.28516,0 18.20118,-54 -24.79688,0 z"
       id="rect3338"
       inkscape:connector-curvature="0" />
    <g
       id="flowRoot3405"
       style="font-style:normal;font-weight:normal;font-size:97.65362549px;line-height:125%;font-family:sans-serif;letter-spacing:0px;word-spacing:0px;fill:#000000;fill-opacity:1;stroke:none;stroke-width:1px;stroke-linecap:butt;stroke-linejoin:miter;stroke-opacity:1"
       transform="matrix(1.5154964,0,0,1.5154964,74.473687,-465.24338)">
      <path
         inkscape:connector-curvature="0"
         id="path3453"
         style="font-style:normal;font-variant:normal;font-weight:normal;font-stretch:condensed;font-size:170.8938446px;font-family:Roboto;-inkscape-font-specification:'Roboto Condensed';fill:#ffffff"
         d="m 181.95973,987.61565 -17.02263,0 -47.06256,-89.61913 -0.50067,0.16689 0,89.45224 -16.93918,0 0,-121.49484 16.93918,0 47.06257,89.3688 0.50066,-0.0834 0,-89.28536 17.02263,0 0,121.49484 z" />
      <path
         inkscape:connector-curvature="0"
         id="path3455"
         style="font-style:normal;font-variant:normal;font-weight:normal;font-stretch:condensed;font-size:170.8938446px;font-family:Roboto;-inkscape-font-specification:'Roboto Condensed';fill:#ffffff"
         d="m 223.68186,987.61565 -16.93918,0 0,-121.49484 16.93918,0 0,121.49484 z" />
      <path
         inkscape:connector-curvature="0"
         id="path3457"
         style="font-style:normal;font-variant:normal;font-weight:normal;font-stretch:condensed;font-size:170.8938446px;font-family:Roboto;-inkscape-font-specification:'Roboto Condensed';fill:#ffffff"
         d="m 330.40707,943.64053 q 0,9.01198 -2.16955,16.52196 -2.16955,7.42654 -6.17488,13.10075 l 15.18686,16.7723 -11.26498,9.76298 -15.01996,-16.35508 q -4.92321,3.00399 -10.84776,4.42255 -5.92454,1.50199 -12.68352,1.50199 -19.35907,0 -30.79094,-12.01597 -11.43186,-12.09942 -11.43186,-33.71148 l 0,-33.37771 q 0,-21.52861 11.43186,-33.71148 11.43187,-12.18286 30.70749,-12.18286 19.6094,0 31.2916,12.18286 11.76564,12.09942 11.76564,33.71148 l 0,33.37771 z m -16.85574,-33.62804 q 0,-15.85441 -6.84243,-24.03195 -6.75898,-8.26098 -19.35907,-8.26098 -12.18286,0 -18.77496,8.26098 -6.50865,8.17754 -6.50865,24.03195 l 0,33.62804 q 0,16.0213 6.5921,24.28228 6.59209,8.26098 18.77496,8.26098 12.60008,0 19.35907,-8.17754 6.75898,-8.26098 6.75898,-24.36572 l 0,-33.62804 z" />
      <path
         inkscape:connector-curvature="0"
         id="path3459"
         style="font-style:normal;font-variant:normal;font-weight:normal;font-stretch:condensed;font-size:170.8938446px;font-family:Roboto;-inkscape-font-specification:'Roboto Condensed';fill:#ffffff"
         d="m 431.95873,866.12081 0,80.35682 q 0,20.19351 -11.34842,31.54193 -11.34842,11.34842 -29.45582,11.34842 -17.77363,0 -28.95516,-11.34842 -11.09809,-11.43186 -11.09809,-31.54193 l 0,-80.35682 16.93919,0 0,80.35682 q 0,14.10208 6.34176,22.11273 6.42521,7.92721 16.7723,7.92721 10.68086,0 17.18952,-7.92721 6.59209,-7.9272 6.59209,-22.11273 l 0,-80.35682 17.02263,0 z" />
      <path
         inkscape:connector-curvature="0"
         id="path3461"
         style="font-style:normal;font-variant:normal;font-weight:normal;font-stretch:condensed;font-size:170.8938446px;font-family:Roboto;-inkscape-font-specification:'Roboto Condensed';fill:#ffffff"
         d="m 511.73145,931.20733 -41.22147,0 0,43.55791 48.56456,0 0,12.85041 -65.50374,0 0,-121.49484 65.08652,0 0,13.01731 -48.14734,0 0,39.13535 41.22147,0 0,12.93386 z" />
    </g>
  </g>
</svg>
